<svg xmlns:x="http://ns.adobe.com/Extensibility/1.0/" xmlns:i="http://ns.adobe.com/AdobeIllustrator/10.0/" xmlns:graph="http://ns.adobe.com/Graphs/1.0/" xmlns="http://www.w3.org/2000/svg" xmlns:xlink="http://www.w3.org/1999/xlink" version="1.1" x="0px" y="0px" viewBox="0 0 64 80" enable-background="new 0 0 64 64" xml:space="preserve"><metadata><sfw xmlns="http://ns.adobe.com/SaveForWeb/1.0/"><slices/><sliceSourceBounds y="-8160" x="-8165" width="16389" height="16384" bottomLeftOrigin="true"/></sfw></metadata><g><path d="M57,27.351V20.5c0-1.93-1.57-3.5-3.5-3.5h-43C8.57,17,7,18.57,7,20.5v6.851c-1.178,0.564-2,1.758-2,3.149V44   c0,1.93,1.57,3.5,3.5,3.5h1c1.93,0,3.5-1.57,3.5-3.5v-0.5h38V44c0,1.93,1.57,3.5,3.5,3.5h1c1.93,0,3.5-1.57,3.5-3.5V30.5   C59,29.109,58.178,27.915,57,27.351z M55,20.5V27h-0.5c-1.93,0-3.5,1.57-3.5,3.5v3H33V19h20.5C54.327,19,55,19.673,55,20.5z    M10.5,19H31v14.5H13v-3c0-1.93-1.57-3.5-3.5-3.5H9v-6.5C9,19.673,9.673,19,10.5,19z M11,44c0,0.827-0.673,1.5-1.5,1.5h-1   C7.673,45.5,7,44.827,7,44V30.5C7,29.673,7.673,29,8.5,29h1c0.827,0,1.5,0.673,1.5,1.5v4v8V44z M13,41.5v-6h38v6H13z M57,44   c0,0.827-0.673,1.5-1.5,1.5h-1c-0.827,0-1.5-0.673-1.5-1.5v-1.5v-8v-4c0-0.827,0.673-1.5,1.5-1.5h1c0.827,0,1.5,0.673,1.5,1.5V44z"/></g></svg>