<svg xmlns:x="http://ns.adobe.com/Extensibility/1.0/" xmlns:i="http://ns.adobe.com/AdobeIllustrator/10.0/" xmlns:graph="http://ns.adobe.com/Graphs/1.0/" xmlns="http://www.w3.org/2000/svg" xmlns:xlink="http://www.w3.org/1999/xlink" version="1.1" x="0px" y="0px" viewBox="0 0 64 80" enable-background="new 0 0 64 64" xml:space="preserve"><metadata><sfw xmlns="http://ns.adobe.com/SaveForWeb/1.0/"><slices/><sliceSourceBounds y="-8160" x="-8165" width="16389" height="16384" bottomLeftOrigin="true"/></sfw></metadata><g><g><path d="M58.419,23.092l-26-12c-0.266-0.122-0.572-0.122-0.838,0l-26,12c-0.501,0.231-0.72,0.826-0.489,1.327    c0.232,0.501,0.826,0.72,1.327,0.489L32,13.102l25.581,11.807C57.717,24.971,57.859,25,57.999,25c0.378,0,0.74-0.215,0.909-0.581    C59.14,23.917,58.921,23.323,58.419,23.092z"/><path d="M50,39h-3.153l-1.86-11.165C44.906,27.354,44.489,27,44,27H20c-0.489,0-0.906,0.354-0.986,0.835L17.153,39H14    c-0.552,0-1,0.447-1,1v8c0,0.553,0.448,1,1,1h3v3c0,0.553,0.448,1,1,1h4c0.552,0,1-0.447,1-1v-3h18v3c0,0.553,0.447,1,1,1h4    c0.553,0,1-0.447,1-1v-3h3c0.553,0,1-0.447,1-1v-8C51,39.447,50.553,39,50,39z M20.847,29h22.306l1.666,10H19.181L20.847,29z     M21,51h-2v-2h2V51z M45,51h-2v-2h2V51z M49,47H15v-6h34V47z"/><path d="M38,43H26c-0.552,0-1,0.447-1,1s0.448,1,1,1h12c0.553,0,1-0.447,1-1S38.553,43,38,43z"/><path d="M20,43h-2c-0.552,0-1,0.447-1,1s0.448,1,1,1h2c0.552,0,1-0.447,1-1S20.552,43,20,43z"/><path d="M44,43c-0.553,0-1,0.447-1,1s0.447,1,1,1h2c0.553,0,1-0.447,1-1s-0.447-1-1-1H44z"/></g></g></svg>